# xmcd
# 
# Track frame offsets:
#   300
#   14047
#   32532
#   46390
#   59325
#   74625
#   87182
#   106765
#   121207
#   135320
#   150450
#   167037
#   182250
#   198762
# 
# Disc length: 2897 seconds
# 
# Revision: 1
# Processed by: cddbd v1.5.1PL2 Copyright (c) Steve Scherf et al.
# Submitted via: Synapstar 1.0 
# 
DISCID=af0b4d0e
DTITLE=Various Artist - SD019 - Country Hits Today
DYEAR=1900
DGENRE=Country
TTITLE0=John Michael Montgomery - No Man's Land
TTITLE1=Rhett Akins - That Ain't My Truck
TTITLE2=Trisha Yearwood - I Wanna Go Too Far
TTITLE3=Brooks and Dunn - Whiskey Under The Bridge
TTITLE4=Jeff Carson - Not On Your Love
TTITLE5=Ty England - Should've Asked Her Faster
TTITLE6=Blackhawk - I'm Not Strong Enough To Say No
TTITLE7=Terri Clark - Better Things To Do
TTITLE8=Shenandoah - Heavenbound
TTITLE9=Neal McCoy - If I Was A Drinkin' Man
TTITLE10=Hal Ketchum - Every Little Word
TTITLE11=Mark Chesnutt - Down In Tennessee
TTITLE12=James House - Anything For Love
TTITLE13=Travis Tritt - Sometimes She Forgets
EXTD=MediaType: Karaoke CD+G Producer: StarDisc
EXTT0=
EXTT1=
EXTT2=
EXTT3=
EXTT4=
EXTT5=
EXTT6=
EXTT7=
EXTT8=
EXTT9=
EXTT10=
EXTT11=
EXTT12=
EXTT13=
PLAYORDER=
